<svg width="518" height="249" viewBox="0 0 518 249" fill="none" xmlns="http://www.w3.org/2000/svg">
<path d="M92.95 56.9114C93.0106 56.5476 92.9046 56.1686 92.6625 55.8805C92.4204 55.5925 92.0724 55.4257 91.6941 55.4257H28.4407C18.8014 55.4257 9.64634 63.2939 8.04231 72.9509L0.249137 120.114C-0.552879 124.95 0.59718 129.468 3.47233 132.864C6.30208 136.199 10.4635 138.034 15.1999 138.034H78.4684C79.0888 138.034 79.6184 137.579 79.7092 136.972L82.5692 119.644C82.6298 119.281 82.5238 118.902 82.2817 118.613C82.0396 118.325 81.6916 118.174 81.3132 118.174H20.3298L27.4117 75.3159H88.834C89.4545 75.3159 89.9841 74.8611 90.0749 74.2547L92.95 56.9114Z" fill="#423F40"/>
<path d="M121.626 55.4561H104.315C103.694 55.4561 103.165 55.9109 103.074 56.5173L89.8331 136.609C89.7726 136.972 89.8785 137.351 90.1206 137.64C90.3627 137.928 90.7108 138.094 91.0891 138.094H108.401C109.021 138.094 109.551 137.64 109.641 137.033L122.882 56.9418C122.943 56.5779 122.837 56.1989 122.595 55.9109C122.353 55.6077 122.005 55.4561 121.626 55.4561Z" fill="#423F40"/>
<path d="M215.522 56.9266C215.583 56.5628 215.477 56.1837 215.235 55.8957C214.993 55.6077 214.645 55.4561 214.266 55.4561H134.352C133.732 55.4561 133.202 55.9109 133.111 56.5173L130.236 73.8757C130.176 74.2396 130.282 74.6186 130.524 74.9066C130.766 75.1946 131.114 75.3614 131.492 75.3614H161.303L151.179 136.624C151.119 136.988 151.225 137.367 151.467 137.655C151.709 137.943 152.057 138.109 152.435 138.109H169.747C170.367 138.109 170.897 137.655 170.988 137.048L181.172 75.3766H211.406C212.027 75.3766 212.556 74.9218 212.647 74.3153L215.522 56.9266Z" fill="#423F40"/>
<path d="M301.61 55.8957C301.368 55.6077 301.02 55.4409 300.642 55.4409H226.826C226.206 55.4409 225.676 55.8957 225.585 56.5021L212.344 136.593C212.284 136.957 212.39 137.336 212.632 137.624C212.874 137.912 213.222 138.079 213.6 138.079H287.416C288.036 138.079 288.566 137.624 288.657 137.018L291.547 119.69C291.608 119.326 291.502 118.947 291.26 118.659C291.018 118.371 290.669 118.204 290.291 118.204H235.391L237.282 106.713H281.605C282.226 106.713 282.755 106.258 282.846 105.652L285.721 88.3082C285.782 87.9444 285.676 87.5654 285.434 87.2773C285.192 86.9893 284.843 86.8225 284.465 86.8225H240.551L242.443 75.3311H297.751C298.372 75.3311 298.901 74.8763 298.992 74.2699L301.867 56.9115C301.958 56.5476 301.852 56.1686 301.61 55.8957Z" fill="#423F40"/>
<path d="M111.699 169.021C108.431 167.323 104.769 166.292 101.439 166.292C99.1242 166.292 97.6261 167.035 97.6261 168.672C97.6261 170.037 98.3676 170.31 100.486 170.856L105.994 172.356C113.273 174.327 115.513 178.011 115.513 182.847C115.513 189.73 109.535 194.354 100.153 194.354C93.9035 194.354 88.8645 192.656 86.1558 191.291L88.3954 182.438C91.664 184.136 95.674 185.712 99.4117 185.712C102.136 185.712 104.042 185.167 104.042 183.529C104.042 182.301 102.756 181.483 100.501 180.937L95.4773 179.573C89.0158 177.875 86.3676 174.737 86.3676 169.355C86.3676 162.275 91.8001 157.439 101.727 157.439C106.418 157.439 111.851 158.727 114.65 160.092L111.699 169.021Z" fill="#E00919"/>
<path d="M134.806 158.06V161.881C137.394 159.228 141.192 157.378 145.959 157.378C151.936 157.378 155.401 159.561 157.52 163.169C160.032 160.107 164.451 157.454 170.307 157.454C179.961 157.454 183.775 164.473 183.775 173.19V193.687H172.35V175.085C172.35 170.522 170.383 168.005 166.236 168.005C162.559 168.005 160.456 169.84 159.366 171.826V193.687H147.941V175.025C147.941 170.522 146.11 168.005 141.888 168.005C138.014 168.005 135.911 169.916 134.821 171.962V193.687H123.396V158.06H134.806Z" fill="#E00919"/>
<path d="M193.762 159.895C197.303 158.606 202.811 157.439 207.835 157.439C219.533 157.439 223.406 163.639 223.406 172.008V193.672H212.254V190.336C209.939 192.519 206.685 194.354 202.13 194.354C194.852 194.354 190.842 190.2 190.842 183.802C190.842 175.767 197.303 171.401 207.018 171.401C208.925 171.401 210.695 171.538 212.254 171.811C212.178 168.202 210.423 166.838 206.746 166.838C203.069 166.838 198.453 167.93 195.669 169.082L193.762 159.895ZM206.473 186.258C208.849 186.258 210.831 185.243 212.254 184.212V178.633C211.376 178.436 210.287 178.299 209.197 178.299C205.187 178.299 201.994 179.664 201.994 182.589C201.979 185.227 203.749 186.258 206.473 186.258Z" fill="#E00919"/>
<path d="M232.985 158.06H244.409V164.261C246.452 160.168 249.433 157.454 254.063 157.454C256.651 157.454 259.087 158.197 261.13 159.5L257.664 169.37C256.106 168.627 253.987 168.005 251.824 168.005C248.011 168.005 245.362 170.522 244.409 173.797V193.687H232.985V158.06Z" fill="#E00919"/>
<path d="M281.182 148.994V158.06H293.485V166.914H281.182V178.906C281.182 182.999 282.604 184.484 285.328 184.484C287.78 184.484 290.428 183.196 291.987 182.029L295.528 190.746C291.987 192.929 287.295 194.354 281.727 194.354C274.312 194.354 269.757 189.851 269.757 181.27V166.899H263.704V158.045H270.09L271.452 148.979H281.182V148.994Z" fill="#E00919"/>
<path d="M14.5182 248.4C21.8389 248.4 27.7735 242.454 27.7735 235.12C27.7735 227.785 21.8389 221.839 14.5182 221.839C7.19752 221.839 1.26294 227.785 1.26294 235.12C1.26294 242.454 7.19752 248.4 14.5182 248.4Z" fill="#706F6F"/>
<path d="M167.779 248.4C175.099 248.4 181.034 242.454 181.034 235.12C181.034 227.785 175.099 221.839 167.779 221.839C160.458 221.839 154.523 227.785 154.523 235.12C154.523 242.454 160.458 248.4 167.779 248.4Z" fill="#423F40"/>
<path d="M162.922 238.394C164.042 239.122 165.721 239.865 167.552 239.865C168.99 239.865 169.897 239.395 169.897 238.455C169.897 237.803 169.428 237.424 168.233 237.121L165.842 236.469C163.315 235.802 162.12 234.468 162.12 232.391C162.12 229.889 164.042 227.873 167.976 227.873C170.064 227.873 172.107 228.449 173.257 229.04L172.243 232.163C171.108 231.511 169.338 230.981 167.824 230.981C166.402 230.981 165.797 231.436 165.797 232.148C165.797 232.8 166.221 233.058 167.128 233.315L169.731 234.073C172.424 234.847 173.59 236.166 173.59 238.197C173.59 241.032 171.108 242.972 167.446 242.972C165.297 242.972 163.028 242.245 162.059 241.699L162.922 238.394Z" fill="white"/>
<path d="M30.8318 227.039C31.6339 227.039 32.1636 227.357 32.1636 228.252C32.1636 229.161 31.6188 229.48 30.8318 229.48C30.0146 229.48 29.4546 229.161 29.4546 228.252C29.4546 227.372 30.0146 227.039 30.8318 227.039ZM29.6816 231.466H31.9215V242.76H29.6816V231.466Z" fill="#423F40"/>
<path d="M35.7795 231.466H38.019V233.695C38.7151 232.254 39.6986 231.269 41.2572 231.269C42.2407 231.269 42.9973 231.587 43.648 232.088L42.7703 233.937C42.3013 233.588 41.6052 233.331 40.9091 233.331C39.4414 233.331 38.4578 234.498 38.019 235.908V242.745H35.7795V231.466Z" fill="#423F40"/>
<path d="M55.6482 241.532C54.4831 242.488 52.864 243.064 50.9725 243.064C46.7206 243.064 44.8745 240.426 44.8745 237.151C44.8745 233.831 47.1594 231.163 50.7758 231.163C54.1956 231.163 55.7995 233.285 55.7995 235.862C55.7995 236.53 55.6936 237.439 55.5574 237.848H47.1896C47.4015 239.819 48.5969 241.153 51.0482 241.153C52.6068 241.153 53.9081 240.547 54.7706 239.895L55.6482 241.532ZM53.6508 235.499C53.6508 234.21 52.7732 233.043 50.7456 233.043C48.6271 233.043 47.4015 234.468 47.235 236.105H53.6206C53.6206 235.938 53.6508 235.696 53.6508 235.499Z" fill="#423F40"/>
<path d="M64.2436 231.163C65.9686 231.163 67.4363 231.769 68.4955 232.724L67.3758 234.392C66.6797 233.74 65.6962 233.255 64.3343 233.255C62.0495 233.255 60.4909 234.877 60.4909 237.121C60.4909 239.365 62.0495 241.002 64.3343 241.002C65.6962 241.002 66.6797 240.502 67.3758 239.865L68.4955 241.532C67.4363 242.488 65.9686 243.094 64.2436 243.094C60.6876 243.094 58.2061 240.532 58.2061 237.136C58.2061 233.74 60.6876 231.163 64.2436 231.163Z" fill="#423F40"/>
<path d="M76.4706 231.163C78.1956 231.163 79.6634 231.769 80.7226 232.724L79.6028 234.392C78.9068 233.74 77.9232 233.255 76.5614 233.255C74.2765 233.255 72.718 234.877 72.718 237.121C72.718 239.365 74.2765 241.002 76.5614 241.002C77.9232 241.002 78.9068 240.502 79.6028 239.865L80.7226 241.532C79.6634 242.488 78.1956 243.094 76.4706 243.094C72.9147 243.094 70.4331 240.532 70.4331 237.136C70.4331 233.74 72.9147 231.163 76.4706 231.163Z" fill="#423F40"/>
<path d="M84.7786 227.039C85.5807 227.039 86.1104 227.357 86.1104 228.252C86.1104 229.161 85.5656 229.48 84.7786 229.48C83.9613 229.48 83.4014 229.161 83.4014 228.252C83.4014 227.372 83.9613 227.039 84.7786 227.039ZM83.6435 231.466H85.8834V242.76H83.6435V231.466Z" fill="#423F40"/>
<path d="M95.0077 231.163C98.5485 231.163 101.045 233.71 101.045 237.151C101.045 240.547 98.5485 243.064 95.0077 243.064C91.5123 243.064 89.0005 240.532 89.0005 237.151C89.0005 233.71 91.5275 231.163 95.0077 231.163ZM95.0077 240.987C97.3077 240.987 98.8814 239.319 98.8814 237.136C98.8814 234.907 97.3077 233.225 95.0077 233.225C92.7228 233.225 91.1643 234.907 91.1643 237.136C91.1794 239.334 92.738 240.987 95.0077 240.987ZM95.9005 229.889H93.9636L95.7038 226.751H97.9735L95.9005 229.889Z" fill="#423F40"/>
<path d="M106.387 231.466V233.209C107.235 232.027 108.612 231.269 110.412 231.269C113.469 231.269 114.816 233.452 114.816 236.257V242.76H112.576V236.605C112.576 234.68 111.699 233.346 109.716 233.346C107.931 233.346 106.811 234.559 106.403 235.787V242.76H104.163V231.466H106.387Z" fill="#423F40"/>
<path d="M128.405 231.269C129.933 231.269 131.189 231.921 132.006 232.739V227.433H134.246V242.76H132.006V241.441C131.204 242.306 130.009 242.973 128.405 242.973C125.152 242.973 123.003 240.517 123.003 237.106C123.003 233.695 125.152 231.269 128.405 231.269ZM128.995 241.017C130.266 241.017 131.386 240.365 132.006 239.744V234.559C131.356 233.892 130.221 233.24 128.995 233.24C126.756 233.24 125.288 234.816 125.288 237.106C125.288 239.41 126.756 241.017 128.995 241.017Z" fill="#423F40"/>
<path d="M148.167 241.532C147.002 242.488 145.383 243.064 143.492 243.064C139.24 243.064 137.394 240.426 137.394 237.151C137.394 233.831 139.679 231.163 143.295 231.163C146.715 231.163 148.319 233.285 148.319 235.862C148.319 236.53 148.213 237.439 148.077 237.848H139.694C139.906 239.819 141.101 241.153 143.552 241.153C145.111 241.153 146.412 240.547 147.275 239.895L148.167 241.532ZM146.17 235.499C146.17 234.21 145.292 233.043 143.265 233.043C141.146 233.043 139.921 234.468 139.754 236.105H146.14C146.14 235.938 146.17 235.696 146.17 235.499Z" fill="#423F40"/>
<path d="M8.16333 228.085H14.7607C19.0883 228.1 22.3265 230.678 22.3265 235.453C22.3265 240.183 19.0883 242.775 14.7607 242.775H8.16333V228.085ZM11.7798 231.223V239.607H14.5791C16.9548 239.607 18.5587 238.121 18.5587 235.438C18.5587 232.724 16.9396 231.223 14.5791 231.223H11.7798Z" fill="white"/>
<path d="M193.02 241.532C191.854 242.488 190.235 243.064 188.344 243.064C184.092 243.064 182.246 240.426 182.246 237.151C182.246 233.831 184.531 231.163 188.147 231.163C191.567 231.163 193.171 233.285 193.171 235.862C193.171 236.53 193.065 237.439 192.929 237.848H184.546C184.758 239.819 185.953 241.153 188.404 241.153C189.963 241.153 191.264 240.547 192.127 239.895L193.02 241.532ZM191.007 235.499C191.007 234.21 190.129 233.043 188.102 233.043C185.983 233.043 184.758 234.468 184.591 236.105H190.977C190.992 235.938 191.007 235.696 191.007 235.499Z" fill="#423F40"/>
<path d="M201.01 231.269C202.598 231.269 203.809 231.936 204.611 232.8V231.466H206.85V241.548C206.85 245.156 204.323 247.036 201.403 247.036C199.179 247.036 197.847 246.232 197.136 245.868L197.635 243.928C198.346 244.383 199.663 245.11 201.403 245.11C203.113 245.11 204.611 244.185 204.611 242.002V240.577C203.794 241.426 202.538 242.108 201.01 242.108C197.771 242.108 195.623 239.668 195.623 236.711C195.623 233.71 197.771 231.269 201.01 231.269ZM201.615 240.153C202.841 240.153 203.96 239.546 204.611 238.879V234.559C204.006 233.892 202.871 233.24 201.615 233.24C199.345 233.24 197.908 234.756 197.908 236.711C197.908 238.652 199.345 240.153 201.615 240.153Z" fill="#423F40"/>
<path d="M219.002 242.76V241.017C218.155 242.199 216.808 242.957 214.992 242.957C211.936 242.957 210.574 240.774 210.574 237.97V231.466H212.813V237.621C212.813 239.546 213.691 240.881 215.718 240.881C217.459 240.881 218.609 239.668 218.987 238.44V231.466H221.226V242.76H219.002Z" fill="#423F40"/>
<path d="M226.236 227.039C227.038 227.039 227.568 227.358 227.568 228.252C227.568 229.162 227.023 229.48 226.236 229.48C225.419 229.48 224.859 229.162 224.859 228.252C224.859 227.373 225.419 227.039 226.236 227.039ZM225.101 231.466H227.341V242.76H225.101V231.466Z" fill="#423F40"/>
<path d="M233.438 231.466V233.179C234.256 232.042 235.557 231.254 237.358 231.254C239.491 231.254 240.626 232.118 241.261 233.543C242.018 232.33 243.456 231.269 245.544 231.269C248.585 231.269 249.826 233.452 249.826 236.257V242.76H247.586V236.605C247.586 234.68 246.784 233.346 244.802 233.346C243.032 233.346 242.018 234.453 241.655 235.681V242.76H239.415V236.59C239.415 234.665 238.613 233.346 236.631 233.346C234.846 233.346 233.832 234.468 233.423 235.696V242.76H231.184V231.466H233.438Z" fill="#423F40"/>
<path d="M254.67 227.039C255.472 227.039 256.001 227.358 256.001 228.252C256.001 229.162 255.457 229.48 254.67 229.48C253.852 229.48 253.292 229.162 253.292 228.252C253.292 227.373 253.852 227.039 254.67 227.039ZM253.535 231.466H255.774V242.76H253.535V231.466Z" fill="#423F40"/>
<path d="M269.695 241.532C268.53 242.488 266.911 243.064 265.02 243.064C260.768 243.064 258.922 240.426 258.922 237.151C258.922 233.831 261.206 231.163 264.823 231.163C268.243 231.163 269.847 233.285 269.847 235.862C269.847 236.53 269.741 237.439 269.605 237.848H261.222C261.433 239.819 262.629 241.153 265.08 241.153C266.639 241.153 267.94 240.547 268.803 239.895L269.695 241.532ZM267.698 235.499C267.698 234.21 266.82 233.043 264.793 233.043C262.674 233.043 261.449 234.468 261.282 236.105H267.668C267.668 235.938 267.698 235.696 267.698 235.499Z" fill="#423F40"/>
<path d="M275.234 231.466V233.209C276.081 232.027 277.458 231.269 279.259 231.269C282.316 231.269 283.662 233.452 283.662 236.257V242.76H281.423V236.605C281.423 234.68 280.545 233.346 278.563 233.346C276.778 233.346 275.658 234.559 275.249 235.787V242.76H273.01V231.466H275.234Z" fill="#423F40"/>
<path d="M290.488 228.601V231.466H294.891V233.24H290.488V238.849C290.488 240.319 291.138 241.002 292.303 241.002C293.166 241.002 294.18 240.592 294.8 240.138L295.526 241.881C294.513 242.503 293.181 242.957 291.622 242.957C289.534 242.957 288.233 241.684 288.233 239.258V233.209H286.13V231.436H288.248L288.505 228.57H290.488V228.601Z" fill="#423F40"/>
<path d="M303.199 231.163C306.739 231.163 309.236 233.71 309.236 237.151C309.236 240.547 306.739 243.064 303.199 243.064C299.703 243.064 297.191 240.532 297.191 237.151C297.191 233.71 299.703 231.163 303.199 231.163ZM303.199 240.987C305.499 240.987 307.072 239.319 307.072 237.136C307.072 234.907 305.499 233.225 303.199 233.225C300.914 233.225 299.355 234.907 299.355 237.136C299.37 239.334 300.914 240.987 303.199 240.987Z" fill="#423F40"/>
<path d="M327.456 231.466L322.538 243.215C321.524 245.717 320.45 247.036 318.119 247.036C317.015 247.036 316.092 246.626 315.532 246.262L315.895 244.428C316.455 244.777 317.181 245.125 318.119 245.125C319.3 245.125 319.844 244.504 320.359 243.306L320.662 242.578L315.381 231.481H317.862L321.66 240.32L325.201 231.481H327.456V231.466Z" fill="#423F40"/>
<path d="M346.068 248.4C353.389 248.4 359.324 242.454 359.324 235.12C359.324 227.785 353.389 221.839 346.068 221.839C338.748 221.839 332.813 227.785 332.813 235.12C332.813 242.454 338.748 248.4 346.068 248.4Z" fill="#E00919"/>
<path d="M340.545 242.76V228.085H352.318V231.239H344.026V233.77H350.744V236.817H344.026V239.622H352.318V242.775H340.545V242.76Z" fill="white"/>
<path d="M372.232 231.466L367.648 242.76H364.848L360.263 231.466H362.654L366.256 240.683L369.857 231.466H372.232Z" fill="#423F40"/>
<path d="M374.654 232.057C375.729 231.602 377.333 231.284 378.77 231.284C381.978 231.284 383.325 233.164 383.325 235.574V242.76H381.085V241.532C380.283 242.29 379.148 242.973 377.484 242.973C375.063 242.973 373.64 241.654 373.64 239.577C373.64 236.878 375.819 235.59 378.936 235.59C379.738 235.59 380.45 235.681 381.07 235.802V235.665C381.07 233.983 380.253 233.179 378.588 233.179C377.408 233.179 376.031 233.497 375.048 233.983L374.654 232.057ZM378.165 241.184C379.496 241.184 380.495 240.562 381.07 240.047V237.439C380.646 237.333 380.011 237.242 379.39 237.242C377.408 237.242 375.88 237.894 375.88 239.364C375.895 240.577 376.788 241.184 378.165 241.184Z" fill="#423F40"/>
<path d="M389.333 227.433V239.653C389.333 240.608 389.757 241.062 390.453 241.062C390.952 241.062 391.361 240.911 391.77 240.668L391.936 242.457C391.437 242.7 390.574 242.973 389.636 242.973C388.107 242.973 387.093 242.199 387.093 240.168V227.433H389.333Z" fill="#423F40"/>
<path d="M402.452 242.76V241.017C401.605 242.199 400.258 242.957 398.442 242.957C395.386 242.957 394.024 240.774 394.024 237.97V231.466H396.263V237.621C396.263 239.546 397.141 240.881 399.168 240.881C400.909 240.881 402.059 239.668 402.437 238.44V231.466H404.676V242.76H402.452Z" fill="#423F40"/>
<path d="M408.687 232.057C409.761 231.602 411.365 231.284 412.802 231.284C416.01 231.284 417.357 233.164 417.357 235.574V242.76H415.118V241.532C414.316 242.29 413.181 242.973 411.516 242.973C409.095 242.973 407.673 241.654 407.673 239.577C407.673 236.878 409.852 235.59 412.969 235.59C413.771 235.59 414.482 235.681 415.102 235.802V235.665C415.102 233.983 414.285 233.179 412.621 233.179C411.441 233.179 410.064 233.497 409.08 233.983L408.687 232.057ZM412.197 241.184C413.529 241.184 414.527 240.562 415.102 240.047V237.439C414.679 237.333 414.043 237.242 413.423 237.242C411.441 237.242 409.912 237.894 409.912 239.364C409.912 240.577 410.82 241.184 412.197 241.184Z" fill="#423F40"/>
<path d="M426.376 231.163C428.101 231.163 429.569 231.769 430.628 232.724L429.509 234.392C428.813 233.74 427.829 233.255 426.467 233.255C424.182 233.255 422.624 234.877 422.624 237.121C422.624 239.365 424.182 241.002 426.467 241.002C427.829 241.002 428.813 240.502 429.509 239.865L430.628 241.532C429.569 242.488 428.101 243.094 426.376 243.094C422.82 243.094 420.339 240.532 420.339 237.136C420.339 233.74 422.82 231.163 426.376 231.163Z" fill="#423F40"/>
<path d="M434.685 227.039C435.487 227.039 436.016 227.357 436.016 228.252C436.016 229.161 435.472 229.48 434.685 229.48C433.867 229.48 433.307 229.161 433.307 228.252C433.307 227.372 433.867 227.039 434.685 227.039ZM433.55 231.466H435.789V242.76H433.55V231.466Z" fill="#423F40"/>
<path d="M444.929 231.163C448.469 231.163 450.966 233.71 450.966 237.151C450.966 240.547 448.469 243.064 444.929 243.064C441.433 243.064 438.921 240.532 438.921 237.151C438.906 233.71 441.433 231.163 444.929 231.163ZM444.929 240.987C447.229 240.987 448.802 239.319 448.802 237.136C448.802 234.907 447.229 233.225 444.929 233.225C442.644 233.225 441.085 234.907 441.085 237.136C441.085 239.334 442.644 240.987 444.929 240.987ZM445.806 229.889H443.869L445.61 226.751H447.879L445.806 229.889Z" fill="#423F40"/>
<path d="M456.293 231.466V233.209C457.141 232.027 458.518 231.269 460.318 231.269C463.375 231.269 464.722 233.452 464.722 236.257V242.76H462.482V236.605C462.482 234.68 461.605 233.346 459.622 233.346C457.837 233.346 456.717 234.559 456.309 235.787V242.76H454.069V231.466H456.293Z" fill="#423F40"/>
<path d="M512.631 240.047L514.265 238.409C518.578 234.089 518.578 227.1 514.265 222.794L471.244 179.694C466.931 175.373 459.955 175.373 455.658 179.694L454.023 181.331C449.711 185.652 449.711 192.641 454.023 196.946L497.045 240.047C501.342 244.367 508.333 244.367 512.631 240.047Z" fill="#423F40"/>
<path d="M363.758 130.348H336.354V78.0751L363.758 63.8245V130.348Z" fill="#E00919"/>
<path d="M400.105 130.347H372.687V61.0198L388.015 83.5478L400.105 73.6179V130.347Z" fill="#E00919"/>
<path d="M436.62 130.348H409.217V67.9936L436.62 44.7379V130.348Z" fill="#E00919"/>
<path d="M389.287 72.0413L372.278 47.967L336.717 66.614L329.272 52.3937L377.257 27.2278L392.45 48.7401L432.581 15.9334L442.72 28.38L389.287 72.0413Z" fill="#E00919"/>
<path d="M465.63 0L420.172 0.864131L455.113 44.3133L465.63 0Z" fill="#E00919"/>
<path d="M442.583 41.448V61.8233C458.472 75.4827 468.354 95.949 467.688 118.72C466.568 157.06 435.032 188.138 396.747 188.669C356.525 189.23 323.749 156.726 323.749 116.552C323.749 103.074 327.456 90.461 333.887 79.6669H315.365C309.721 91.977 306.8 105.773 307.406 120.342C309.343 166.762 347.446 204.117 393.811 205.118C443.521 206.179 484.152 166.126 484.152 116.567C484.152 84.882 467.536 57.1085 442.583 41.448Z" fill="#423F40"/>
</svg>
