<svg width="203" height="80" viewBox="0 0 203 80" fill="none" xmlns="http://www.w3.org/2000/svg">
<g clip-path="url(#clip0_3_873)">
<mask id="mask0_3_873" style="mask-type:luminance" maskUnits="userSpaceOnUse" x="0" y="0" width="203" height="80">
<path d="M203 0H0V80H203V0Z" fill="white"/>
</mask>
<g mask="url(#mask0_3_873)">
<path d="M79.4738 24.3816H60.4876L53.9172 63.6157H60.7763C66.5418 63.4912 68.0295 58.4471 68.3628 56.8026L69.4586 50.309H75.1538C82.2897 50.309 89.0408 44.5038 90.2352 37.3453C91.4296 30.1868 86.6215 24.3816 79.4832 24.3816M79.7601 37.3547C79.3706 39.6852 77.1671 41.5835 74.8323 41.5835H70.9135L71.594 37.4792L72.3308 33.1259H76.2496C78.5774 33.1259 80.1473 35.0171 79.7577 37.3547" fill="#656564"/>
<path d="M58.3899 24.3816H47.1639H33.8705H22.6468L20.4199 37.7188H31.6436L27.3118 63.6157H40.6052L44.9346 37.7188H56.1606L58.3899 24.3816Z" fill="#E20613"/>
<path d="M14.171 24.3815C8.11918 24.3674 6.66196 29.6957 6.34283 31.2745L6.27243 31.7185L0.93866 63.6156H14.2297L20.8001 24.3815H14.171Z" fill="#656564"/>
<path d="M64.3385 20.9538C55.2079 12.2871 43.6135 7.09268 30.9866 7.09268C24.3867 7.09993 17.8654 8.52686 11.8643 11.2769C21.7317 4.12545 33.3402 0 45.7583 0C63.0291 0 78.7206 7.96429 90.3432 20.9538H64.3385Z" fill="#656564"/>
<path d="M26.9622 20.9538C36.0927 12.2871 47.6872 7.09268 60.3141 7.09268C66.9348 7.06817 73.4839 8.46366 79.5208 11.1852C69.6535 4.02678 57.9605 0 45.5354 0C28.2622 0 12.5683 7.96429 0.93866 20.9538H26.9622Z" fill="#E20613"/>
<path d="M98.8965 21.0807H97.9836V75.1439H98.8965V21.0807Z" fill="#656564"/>
<path d="M9.38631 70.2878L8.96392 72.8486H3.74044L2.56715 80H0L1.20614 72.7171C1.33815 72.0515 1.69043 71.45 2.20607 71.0096C2.7217 70.5692 3.37058 70.3158 4.04784 70.2902L9.38631 70.2878Z" fill="#656564"/>
<path d="M20.732 72.7124L20.1196 76.4314H12.8452L12.6715 77.4393H19.9459L19.5235 80.0001H12.1201C11.8161 80.0077 11.5143 79.9466 11.2372 79.8211C10.9601 79.6957 10.7148 79.5093 10.5197 79.2758C10.3246 79.0423 10.1846 78.7677 10.1103 78.4725C10.0359 78.1773 10.0291 77.8691 10.0903 77.5708L10.8905 72.7147C11.0214 72.0533 11.3699 71.4549 11.8803 71.015C12.3907 70.5751 13.0336 70.3191 13.7064 70.2879H18.7069C19.0106 70.2796 19.3123 70.3403 19.5892 70.4655C19.8661 70.5906 20.1111 70.777 20.3057 71.0105C20.5004 71.2441 20.6396 71.5188 20.7131 71.8139C20.7865 72.1091 20.7922 72.4171 20.7297 72.7147M17.9279 74.1901L18.1484 72.8486H13.4389L13.2183 74.1901H17.9279Z" fill="#656564"/>
<path d="M33.4434 67.1068L31.3127 79.9977H23.8858C23.5821 80.006 23.2804 79.9452 23.0035 79.8201C22.7266 79.6949 22.4816 79.5086 22.287 79.275C22.0923 79.0415 21.953 78.7668 21.8796 78.4716C21.8062 78.1765 21.8005 77.8685 21.863 77.5708L22.6656 72.7147C22.7933 72.0516 23.1408 71.451 23.6518 71.0102C24.1629 70.5693 24.8075 70.314 25.4814 70.2855H30.3459L30.8715 67.1068H33.4434ZM24.463 77.4439H29.1773L29.9353 72.8557H25.221L24.463 77.4439Z" fill="#656564"/>
<path d="M49.2428 70.5556L48.1048 77.3875H57.5169L57.0851 79.9977H47.565C46.1923 79.9977 45.2748 78.8911 45.4977 77.5191L46.671 70.4217C46.7974 69.7411 47.1522 69.124 47.6767 68.6729C48.2011 68.2217 48.8638 67.9634 49.5549 67.9408H59.0867L58.6643 70.5556H49.2428Z" fill="#656564"/>
<path d="M60.9875 67.9408H63.5945L61.6023 79.9977H58.9952L60.9875 67.9408Z" fill="#656564"/>
<path d="M77.5496 67.9408L77.1179 70.5556H72.4059L70.8431 79.9977H68.2361L69.7965 70.5556H65.0823L65.514 67.9408H77.5496Z" fill="#656564"/>
<path d="M90.1273 70.5556H81.635L81.2854 72.6653H88.1233L87.6915 75.2755H80.8536L80.5063 77.3875H89.0009L88.5668 79.9977H77.4487L79.441 67.9408H90.5591L90.1273 70.5556Z" fill="#656564"/>
<path d="M107.363 26.2446H105.967V35.9451H107.363V26.2446Z" fill="#656564"/>
<path d="M113.976 35.945V31.5377C113.976 30.2948 113.49 29.6582 112.406 29.6582C111.453 29.6582 110.826 30.363 110.582 31.1406V35.945H109.214V28.4858H110.582V29.5384C110.838 29.1614 111.185 28.8558 111.591 28.6503C111.997 28.4448 112.449 28.3461 112.903 28.3637C114.572 28.3637 115.355 29.435 115.355 31.2886V35.945H113.976Z" fill="#656564"/>
<path d="M121.227 30.0387C120.635 29.7368 119.983 29.5707 119.319 29.5524C118.49 29.5524 118.063 29.9401 118.063 30.5109C118.063 31.0231 118.422 31.2345 119.105 31.4507L119.959 31.7209C121.182 32.1226 121.724 32.7616 121.724 33.7624C121.724 35.0194 120.673 36.086 119.004 36.086C118.164 36.0847 117.334 35.8902 116.58 35.5174L116.864 34.2746C117.491 34.6651 118.208 34.8869 118.946 34.9183C119.816 34.9183 120.354 34.4907 120.354 33.8752C120.354 33.3043 119.971 33.0341 119.286 32.8204L118.446 32.5478C117.273 32.1931 116.665 31.6081 116.665 30.5532C116.665 29.3128 117.589 28.3542 119.26 28.3542C120.059 28.3692 120.847 28.5392 121.581 28.8547L121.227 30.0387Z" fill="#656564"/>
<path d="M124.89 33.692C124.89 34.519 125.244 34.8667 125.887 34.8667C126.393 34.8384 126.88 34.6583 127.283 34.3498L127.64 35.4634C127.029 35.8769 126.307 36.0956 125.57 36.0907C124.357 36.0907 123.519 35.4352 123.519 33.8659V29.6018H122.346V28.4882H123.601L123.758 26.5923H124.885V28.4882H127.325V29.6018H124.89V33.692Z" fill="#656564"/>
<path d="M129.278 25.5891C129.747 25.5891 130.104 25.8029 130.104 26.3597C130.104 26.9165 129.749 27.1444 129.278 27.1444C128.806 27.1444 128.421 26.9306 128.421 26.3597C128.421 25.7888 128.78 25.5891 129.278 25.5891ZM128.574 28.4835H129.939V35.945H128.574V28.4835Z" fill="#656564"/>
<path d="M133.555 33.692C133.555 34.519 133.91 34.8667 134.553 34.8667C135.059 34.8384 135.546 34.6583 135.949 34.3498L136.306 35.4634C135.695 35.8769 134.973 36.0956 134.236 36.0907C133.023 36.0907 132.185 35.4352 132.185 33.8659V29.6018H131.012V28.4882H132.267L132.424 26.5923H133.551V28.4882H135.986V29.6018H133.555V33.692Z" fill="#656564"/>
<path d="M138.556 28.4835V32.8909C138.556 34.1337 139.042 34.7704 140.109 34.7704C141.081 34.7704 141.705 34.0656 141.947 33.2879V28.4835H143.331V35.9451H141.947V34.8925C141.692 35.2698 141.345 35.5757 140.939 35.7812C140.532 35.9868 140.081 36.0852 139.626 36.0672C137.96 36.0672 137.176 34.9959 137.176 33.1423V28.4835H138.556Z" fill="#656564"/>
<path d="M146.919 33.692C146.919 34.519 147.274 34.8667 147.916 34.8667C148.423 34.8384 148.91 34.6583 149.313 34.3498L149.669 35.4634C149.058 35.8753 148.337 36.0923 147.6 36.086C146.387 36.086 145.549 35.4305 145.549 33.8612V29.6018H144.375V28.4882H145.631L145.788 26.5923H146.914V28.4882H149.35V29.6018H146.919V33.692Z" fill="#656564"/>
<path d="M153.569 28.2861C155.608 28.2861 156.96 29.7686 156.96 32.2354C156.96 34.7022 155.606 36.1447 153.569 36.1447C151.532 36.1447 150.195 34.6764 150.195 32.2354C150.195 29.7944 151.547 28.2861 153.569 28.2861ZM153.569 34.8643C154.797 34.8643 155.592 33.9246 155.592 32.2377C155.592 30.5509 154.794 29.5689 153.569 29.5689C152.344 29.5689 151.547 30.5251 151.547 32.2377C151.547 33.9504 152.344 34.8643 153.569 34.8643Z" fill="#656564"/>
<path d="M110.256 44.607V53.067H108.86V44.607H105.981V43.3666H113.006V44.607H110.256Z" fill="#656564"/>
<path d="M113.992 49.8062C114.048 51.1453 114.675 52.085 116.186 52.085C116.925 52.0749 117.633 51.7844 118.167 51.2721L118.709 52.3294C117.948 52.9676 116.979 53.3022 115.987 53.2691C113.678 53.2691 112.638 51.6246 112.638 49.3598C112.638 47.095 113.922 45.4105 115.958 45.4105C117.937 45.4105 118.774 46.7802 118.774 48.4341C118.772 48.8968 118.713 49.3574 118.601 49.8062H113.992ZM117.484 48.7067C117.513 48.5557 117.527 48.4023 117.526 48.2485C117.526 47.2806 116.984 46.604 115.958 46.604C114.785 46.604 114.119 47.4592 114.062 48.702L117.484 48.7067Z" fill="#656564"/>
<path d="M123.195 51.9793C123.539 51.9839 123.879 51.9106 124.19 51.765C124.502 51.6193 124.776 51.4051 124.993 51.1383L125.631 52.1931C125.32 52.5364 124.939 52.8094 124.514 52.9941C124.089 53.1788 123.63 53.271 123.167 53.2644C121.158 53.2644 119.718 51.7679 119.718 49.3246C119.718 46.8813 121.156 45.4035 123.167 45.4035C123.63 45.397 124.089 45.4892 124.514 45.6739C124.939 45.8586 125.32 46.1316 125.631 46.4748L124.993 47.5273C124.772 47.2583 124.492 47.0429 124.176 46.8973C123.86 46.7516 123.515 46.6795 123.167 46.6863C121.956 46.6863 121.119 47.6425 121.119 49.3222C121.119 51.002 121.956 51.977 123.195 51.977" fill="#656564"/>
<path d="M131.601 53.0648V48.6574C131.601 47.4146 131.115 46.7779 130.031 46.7779C129.078 46.7779 128.452 47.4827 128.208 48.2627V53.0671H126.839V45.6032H128.208V46.6604C128.463 46.2835 128.81 45.9779 129.216 45.7724C129.622 45.5668 130.074 45.4682 130.528 45.4858C132.197 45.4858 132.98 46.5571 132.98 48.4107V53.0765L131.601 53.0648Z" fill="#656564"/>
<path d="M137.627 45.4034C139.666 45.4034 141.018 46.8859 141.018 49.3527C141.018 51.8195 139.664 53.262 137.627 53.262C135.59 53.262 134.252 51.7937 134.252 49.3527C134.252 46.9117 135.604 45.4034 137.627 45.4034ZM137.627 51.9816C138.854 51.9816 139.649 51.0419 139.649 49.355C139.649 47.6682 138.852 46.6909 137.627 46.6909C136.402 46.6909 135.604 47.6471 135.604 49.355C135.604 51.063 136.402 51.9816 137.627 51.9816Z" fill="#656564"/>
<path d="M143.756 42.9343V51.1805C143.756 51.8243 143.969 52.0099 144.354 52.0099C144.631 52.0072 144.9 51.9167 145.122 51.7514L145.208 52.8509C144.799 53.0819 144.338 53.204 143.869 53.2057C142.897 53.2057 142.374 52.7499 142.374 51.5235V42.9343H143.756Z" fill="#656564"/>
<path d="M149.008 45.4035C151.042 45.4035 152.398 46.8883 152.398 49.3551C152.398 51.8219 151.042 53.2644 149.008 53.2644C146.973 53.2644 145.631 51.7961 145.631 49.3551C145.631 46.9141 146.985 45.4035 149.008 45.4035ZM149.008 51.9817C150.23 51.9817 151.028 51.0419 151.028 49.3551C151.028 47.6683 150.23 46.6886 149.008 46.6886C147.785 46.6886 146.985 47.6471 146.985 49.3551C146.985 51.0631 147.783 51.9817 149.008 51.9817ZM149.55 44.5366H148.376L149.371 42.495H150.742L149.55 44.5366Z" fill="#656564"/>
<path d="M156.338 45.4739C156.713 45.4574 157.087 45.5228 157.434 45.6656C157.781 45.8084 158.092 46.0252 158.347 46.3009V45.5961H159.713V52.6442C159.713 54.9089 158.359 55.8957 156.636 55.8957C155.737 55.9073 154.853 55.6629 154.088 55.1909L154.4 53.9645C155.006 54.4065 155.728 54.6599 156.477 54.6928C157.476 54.6928 158.354 54.237 158.354 52.8133V51.7725C158.1 52.0526 157.79 52.2753 157.444 52.426C157.097 52.5767 156.723 52.6519 156.345 52.6465C154.534 52.6465 153.351 51.2369 153.351 49.0802C153.351 46.9235 154.524 45.4833 156.345 45.4833M156.751 51.4108C157.455 51.4108 158.002 50.9667 158.335 50.612V47.5461C158.153 47.2973 157.917 47.0925 157.646 46.9466C157.374 46.8007 157.073 46.7173 156.765 46.7027C155.51 46.7027 154.726 47.6142 154.726 49.0731C154.726 50.4828 155.498 51.4225 156.749 51.4225" fill="#656564"/>
<path d="M162.134 42.7064C162.604 42.7064 162.96 42.9226 162.96 43.4794C162.96 44.0362 162.606 44.264 162.134 44.264C161.663 44.264 161.28 44.0503 161.28 43.4794C161.28 42.9085 161.637 42.7064 162.134 42.7064ZM161.43 45.6032H162.796V53.0647H161.444L161.43 45.6032Z" fill="#656564"/>
<path d="M167.607 51.9793C167.95 51.9839 168.29 51.9106 168.602 51.765C168.913 51.6193 169.187 51.4051 169.404 51.1383L170.042 52.1931C169.731 52.5364 169.35 52.8094 168.925 52.9941C168.501 53.1788 168.041 53.271 167.578 53.2644C165.57 53.2644 164.129 51.7679 164.129 49.3246C164.129 46.8813 165.567 45.4035 167.578 45.4035C168.041 45.397 168.501 45.4892 168.925 45.6739C169.35 45.8586 169.731 46.1316 170.042 46.4748L169.404 47.5273C169.183 47.2583 168.904 47.0429 168.587 46.8973C168.271 46.7516 167.926 46.6795 167.578 46.6863C166.365 46.6863 165.53 47.6425 165.53 49.3222C165.53 51.002 166.368 51.977 167.607 51.977" fill="#656564"/>
<path d="M174.102 45.4034C176.141 45.4034 177.493 46.8859 177.493 49.3527C177.493 51.8195 176.139 53.262 174.102 53.262C172.065 53.262 170.728 51.7937 170.728 49.3527C170.728 46.9117 172.079 45.4034 174.102 45.4034ZM174.102 51.9816C175.329 51.9816 176.125 51.0419 176.125 49.355C176.125 47.6682 175.327 46.6909 174.102 46.6909C172.877 46.6909 172.079 47.6471 172.079 49.355C172.079 51.063 172.877 51.9816 174.102 51.9816Z" fill="#656564"/>
<path d="M112.352 70.182H110.993V69.395C110.749 69.6923 110.442 69.931 110.094 70.0937C109.746 70.2563 109.366 70.3387 108.982 70.3347C107.189 70.3347 105.976 68.9087 105.976 66.4536C105.976 63.9985 107.189 62.603 108.982 62.603C109.36 62.6053 109.733 62.6849 110.079 62.8368C110.424 62.9887 110.736 63.2097 110.993 63.4864V60.0516H112.361L112.352 70.182ZM109.388 69.0966C109.694 69.0869 109.994 69.0123 110.269 68.8779C110.544 68.7434 110.788 68.5522 110.984 68.3166V64.607C110.792 64.3654 110.55 64.1687 110.274 64.0307C109.999 63.8927 109.696 63.8168 109.388 63.8082C108.137 63.8082 107.365 64.8067 107.365 66.4607C107.365 68.1146 108.149 69.0872 109.388 69.0872" fill="#656564"/>
<path d="M115.032 66.9165C115.088 68.2556 115.714 69.1954 117.226 69.1954C117.965 69.1853 118.673 68.8947 119.206 68.3825L119.748 69.4397C118.987 70.0779 118.018 70.4126 117.026 70.3794C114.717 70.3794 113.678 68.7349 113.678 66.4701C113.678 64.2054 114.961 62.5209 116.998 62.5209C118.976 62.5209 119.814 63.8905 119.814 65.5445C119.811 66.0071 119.753 66.4678 119.64 66.9165H115.032ZM118.523 65.817C118.552 65.6661 118.567 65.5126 118.566 65.3589C118.566 64.391 118.023 63.7143 116.998 63.7143C115.825 63.7143 115.158 64.5695 115.102 65.8123L118.523 65.817Z" fill="#656564"/>
<path d="M124.99 60.0516V68.2955C124.99 68.9416 125.204 69.1248 125.589 69.1248C125.865 69.1216 126.133 69.032 126.356 68.8687L126.443 69.9659C126.034 70.198 125.573 70.3202 125.103 70.3206C124.132 70.3206 123.608 69.8649 123.608 68.6385V60.0516H124.99Z" fill="#656564"/>
<path d="M131.115 70.1821V69.5266C130.555 70.0479 129.817 70.3339 129.052 70.3254C127.567 70.3254 126.706 69.4562 126.706 68.0724C126.706 66.2916 128.144 65.4623 130.068 65.4623C130.418 65.4625 130.767 65.5019 131.108 65.5797V65.3448C131.108 64.2618 130.524 63.8036 129.526 63.8036C128.85 63.8145 128.185 63.9708 127.574 64.2618L127.339 63.12C128.101 62.7916 128.92 62.6167 129.749 62.6055C131.486 62.6055 132.469 63.6039 132.469 65.3871V70.1962L131.115 70.1821ZM129.472 69.2095C129.78 69.2132 130.085 69.1525 130.368 69.0311C130.651 68.9097 130.905 68.7304 131.115 68.5047V66.5782C130.797 66.5074 130.474 66.4697 130.148 66.4654C129.022 66.4654 128.125 66.9236 128.125 67.9502C128.125 68.7631 128.696 69.2165 129.479 69.2165" fill="#656564"/>
<path d="M136.674 60.4792H140.452C142.034 60.4792 143.43 61.5646 143.43 63.9328C143.43 66.0754 142.022 67.344 140.452 67.344H138.07V70.1821H136.674V60.4792ZM138.07 61.708V66.1177H140.166C141.165 66.1177 142.02 65.2907 142.02 63.9328C142.02 62.4527 141.165 61.708 140.166 61.708H138.07Z" fill="#656564"/>
<path d="M144.549 70.1821V62.7276H145.931V63.8694C146.286 63.0142 146.785 62.5984 147.64 62.5984C148.06 62.5938 148.471 62.7238 148.813 62.9696L148.578 64.2359C148.269 64.0176 147.901 63.8988 147.522 63.8952C146.71 63.8952 146.227 64.5225 145.943 65.4951V70.1938L144.549 70.1821Z" fill="#656564"/>
<path d="M152.527 62.5209C154.567 62.5209 155.918 64.0033 155.918 66.4701C155.918 68.9369 154.564 70.3794 152.527 70.3794C150.491 70.3794 149.153 68.9111 149.153 66.4701C149.153 64.0292 150.505 62.5209 152.527 62.5209ZM152.527 69.099C153.755 69.099 154.55 68.1593 154.55 66.4725C154.55 64.7856 153.752 63.8083 152.527 63.8083C151.303 63.8083 150.505 64.7645 150.505 66.4725C150.505 68.1805 151.303 69.099 152.527 69.099Z" fill="#656564"/>
<path d="M163.233 70.182H161.865V69.395C161.621 69.6923 161.314 69.931 160.966 70.0937C160.618 70.2563 160.238 70.3387 159.853 70.3347C158.061 70.3347 156.848 68.9087 156.848 66.4536C156.848 63.9985 158.058 62.603 159.853 62.603C160.231 62.6053 160.604 62.6849 160.95 62.8368C161.296 62.9887 161.607 63.2097 161.865 63.4864V60.0516H163.233V70.182ZM160.271 69.0966C160.577 69.0869 160.877 69.0123 161.153 68.8779C161.428 68.7434 161.671 68.5522 161.867 68.3166V64.607C161.675 64.3654 161.433 64.1687 161.157 64.0307C160.882 63.8927 160.579 63.8168 160.271 63.8082C159.02 63.8082 158.248 64.8067 158.248 66.4607C158.248 68.1146 159.032 69.0872 160.271 69.0872" fill="#656564"/>
<path d="M166.267 62.7275V67.1373C166.267 68.3777 166.752 69.0167 167.82 69.0167C168.792 69.0167 169.416 68.3119 169.657 67.5343V62.7275H171.042V70.1891H169.657V69.1342C169.402 69.5116 169.056 69.8176 168.649 70.0232C168.243 70.2288 167.791 70.3271 167.337 70.3089C165.671 70.3089 164.887 69.2399 164.887 67.3839V62.7275H166.267Z" fill="#656564"/>
<path d="M175.827 69.0967C176.17 69.1012 176.51 69.0279 176.822 68.8823C177.133 68.7366 177.407 68.5224 177.624 68.2556L178.262 69.3104C177.951 69.6537 177.57 69.9267 177.146 70.1114C176.721 70.2961 176.262 70.3883 175.798 70.3817C173.79 70.3817 172.349 68.8852 172.349 66.4419C172.349 63.9986 173.787 62.5208 175.798 62.5208C176.262 62.5143 176.721 62.6065 177.146 62.7912C177.57 62.9759 177.951 63.2489 178.262 63.5921L177.624 64.6446C177.403 64.3756 177.124 64.1603 176.808 64.0146C176.491 63.8689 176.146 63.7968 175.798 63.8036C174.585 63.8036 173.75 64.7598 173.75 66.4395C173.75 68.1193 174.588 69.0943 175.827 69.0943" fill="#656564"/>
<path d="M182.423 69.0967C182.766 69.1012 183.107 69.0279 183.418 68.8823C183.729 68.7366 184.003 68.5224 184.22 68.2556L184.859 69.3104C184.547 69.6537 184.166 69.9267 183.742 70.1114C183.317 70.2961 182.858 70.3883 182.395 70.3817C180.386 70.3817 178.945 68.8852 178.945 66.4419C178.945 63.9986 180.384 62.5208 182.395 62.5208C182.858 62.5143 183.317 62.6065 183.742 62.7912C184.166 62.9759 184.547 63.2489 184.859 63.5921L184.22 64.6446C183.999 64.3756 183.72 64.1603 183.404 64.0146C183.088 63.8689 182.743 63.7968 182.395 63.8036C181.184 63.8036 180.346 64.7598 180.346 66.4395C180.346 68.1193 181.184 69.0943 182.423 69.0943" fill="#656564"/>
<path d="M186.769 59.8239C187.238 59.8239 187.595 60.04 187.595 60.5968C187.595 61.1536 187.238 61.3768 186.769 61.3768C186.299 61.3768 185.912 61.163 185.912 60.5968C185.912 60.0306 186.271 59.8239 186.769 59.8239ZM186.065 62.7182H187.43V70.1798H186.065V62.7182Z" fill="#656564"/>
<path d="M192.142 62.5208C194.177 62.5208 195.533 64.0056 195.533 66.4724C195.533 68.9392 194.177 70.3817 192.142 70.3817C190.108 70.3817 188.766 68.9134 188.766 66.4724C188.766 64.0314 190.12 62.5208 192.142 62.5208ZM192.142 69.099C193.365 69.099 194.163 68.1592 194.163 66.4724C194.163 64.7856 193.365 63.8059 192.142 63.8059C190.92 63.8059 190.12 64.7644 190.12 66.4724C190.12 68.1804 190.917 69.099 192.142 69.099ZM192.684 61.6539H191.511L192.506 59.6123H193.876L192.684 61.6539Z" fill="#656564"/>
<path d="M201.618 70.1821V65.7818C201.618 64.539 201.132 63.9023 200.048 63.9023C199.095 63.9023 198.469 64.6071 198.225 65.3871V70.1915H196.857V62.7276H198.225V63.7848C198.48 63.4079 198.827 63.1023 199.233 62.8968C199.639 62.6912 200.091 62.5926 200.546 62.6101C202.214 62.6101 202.998 63.6814 202.998 65.5351V70.2009L201.618 70.1821Z" fill="#656564"/>
</g>
</g>
<defs>
<clipPath id="clip0_3_873">
<rect width="203" height="80" fill="white"/>
</clipPath>
</defs>
</svg>
